<?xml version="1.0" encoding="UTF-8"?>
<svg width="1200pt" height="1200pt" version="1.1" viewBox="0 0 1200 1200" xmlns="http://www.w3.org/2000/svg">
 <g>
  <path d="m582 516c109.18 0 198-88.824 198-198v-72c0-109.18-88.824-198-198-198s-198 88.824-198 198v72c0 109.18 88.824 198 198 198zm-150-270c0-82.715 67.285-150 150-150s150 67.285 150 150v72c0 82.715-67.285 150-150 150s-150-67.285-150-150z"/>
  <path d="m969.94 941 64.43-65.41c9.3008-9.4453 9.1914-24.637-0.25391-33.938-9.4336-9.3008-24.637-9.1914-33.938 0.25391l-64.43 65.41-65.41-64.43c-9.4336-9.3008-24.637-9.1914-33.938 0.25391-9.3008 9.4453-9.1914 24.637 0.25391 33.938l65.41 64.43-64.43 65.41c-9.3008 9.4453-9.1914 24.637 0.25391 33.938 4.6797 4.6094 10.754 6.8984 16.836 6.8984 6.2031 0 12.406-2.3867 17.102-7.1641l64.43-65.398 65.41 64.43c4.668 4.6094 10.754 6.8984 16.836 6.8984 6.2031 0 12.406-2.3867 17.102-7.1641 9.3008-9.4453 9.1914-24.637-0.25391-33.938z"/>
  <path d="m953.07 716.12c-0.011719-0.011719-0.011719-0.023438-0.023438-0.023438-86.641-99.793-219.79-157.02-365.3-157.02-256.75 0-457.86 186.65-457.86 424.92 0 13.246 10.754 24 24 24h566.88c28.672 91.594 114.31 158.25 215.23 158.25 124.33 0 225.49-101.16 225.49-225.49 0-118.59-92.051-215.86-208.42-224.64zm-774.41 243.88c13.031-199.77 188.02-352.92 409.08-352.92 117.35 0 225.32 40.801 302.32 112.91-102.38 21.277-179.55 112.16-179.55 220.77 0 6.4922 0.43359 12.887 0.97266 19.246zm757.33 158.26c-97.871 0-177.49-79.621-177.49-177.49s79.621-177.5 177.49-177.5 177.49 79.621 177.49 177.5c0 97.859-79.621 177.49-177.49 177.49z"/>
 </g>
</svg>
