<?xml version="1.0" encoding="UTF-8"?>
<svg width="1200pt" height="1200pt" version="1.1" viewBox="0 0 1200 1200" xmlns="http://www.w3.org/2000/svg">
 <g>
  <path d="m600 35.625c-149.68 0-293.23 59.461-399.07 165.3-105.84 105.84-165.3 249.39-165.3 399.07s59.461 293.23 165.3 399.07c105.84 105.84 249.39 165.3 399.07 165.3s293.23-59.461 399.07-165.3c105.84-105.84 165.3-249.39 165.3-399.07-0.14844-149.64-59.656-293.1-165.46-398.91s-249.27-165.32-398.91-165.46zm0 1035c-124.82 0-244.52-49.582-332.78-137.84-88.262-88.258-137.84-207.96-137.84-332.78s49.582-244.52 137.84-332.78c88.258-88.262 207.96-137.84 332.78-137.84s244.52 49.582 332.78 137.84c88.262 88.258 137.84 207.96 137.84 332.78-0.14844 124.77-49.781 244.39-138.01 332.62-88.227 88.227-207.84 137.86-332.62 138.01z" fill="#212121"/>
  <path d="m645 352.5c0 24.852-20.148 45-45 45s-45-20.148-45-45 20.148-45 45-45 45 20.148 45 45" fill="#212121"/>
  <path d="m646.88 532.5c0-12.434-4.9375-24.355-13.73-33.145-8.7891-8.793-20.711-13.73-33.145-13.73h-67.5v93.75h20.625v221.25h-43.125v93.75h180v-93.75h-43.125z" fill="#212121"/>
 </g>
</svg>
