<svg width="107" height="21" viewBox="0 0 107 21" fill="none" xmlns="http://www.w3.org/2000/svg">
<path d="M11.6895 4.27344V12.4824C11.6895 13.4199 11.4639 14.2432 11.0127 14.9521C10.5674 15.6611 9.94043 16.209 9.13184 16.5957C8.32324 16.9824 7.38867 17.1758 6.32812 17.1758C5.26172 17.1758 4.32422 16.9824 3.51562 16.5957C2.70703 16.209 2.08008 15.6611 1.63477 14.9521C1.18945 14.2432 0.966797 13.4199 0.966797 12.4824V4.27344H3.95508V12.2363C3.95508 12.6816 4.05469 13.0801 4.25391 13.4316C4.45312 13.7832 4.73145 14.0586 5.08887 14.2578C5.45215 14.457 5.86523 14.5566 6.32812 14.5566C6.79102 14.5566 7.20117 14.457 7.55859 14.2578C7.91602 14.0586 8.19141 13.7832 8.38477 13.4316C8.58398 13.0801 8.68359 12.6816 8.68359 12.2363V4.27344H11.6895ZM15.423 4.27344H20.6262C21.5754 4.27344 22.3957 4.44629 23.0871 4.79199C23.7844 5.13184 24.3176 5.62109 24.6867 6.25977C25.0617 6.89258 25.2492 7.63672 25.2492 8.49219C25.2551 9.35938 25.0676 10.1035 24.6867 10.7246C24.3059 11.3457 23.758 11.8174 23.0432 12.1396L25.7063 17H22.4191L20.0813 12.623H18.4113V17H15.423V4.27344ZM19.9934 10.2324C21.4348 10.2441 22.1555 9.66406 22.1555 8.49219C22.1555 7.89453 21.9709 7.44629 21.6018 7.14746C21.2385 6.84863 20.7023 6.69922 19.9934 6.69922H18.4113V10.2324H19.9934ZM28.7367 4.27344H31.725V14.5566H37.0688V17H28.7367V4.27344Z" fill="#212121"/>
<path d="M42.5273 4.27344H53.2324V6.7168H49.3652V17H46.3945V6.7168H42.5273V4.27344ZM54.3469 17L58.6711 4.27344H62.6438L66.9504 17H63.7336L62.8723 14.2754H58.4426L57.5813 17H54.3469ZM62.1516 11.9902L60.7102 7.41992H60.6047L59.1633 11.9902H62.1516ZM77.8734 8.42188C77.727 7.88281 77.4428 7.4668 77.0209 7.17383C76.6049 6.875 76.0863 6.72852 75.4652 6.73438C74.8441 6.73438 74.3021 6.88672 73.8393 7.19141C73.3822 7.49609 73.0277 7.94141 72.7758 8.52734C72.5297 9.10742 72.4066 9.80469 72.4066 10.6191C72.4066 11.4453 72.5268 12.1514 72.767 12.7373C73.0131 13.3232 73.3646 13.7715 73.8217 14.082C74.2787 14.3867 74.8266 14.5391 75.4652 14.5391C76.3031 14.5391 76.9535 14.3369 77.4164 13.9326C77.8852 13.5283 78.1313 12.9746 78.1547 12.2715H75.5883V10.0742H81.0375V11.7441C81.0375 12.8516 80.8002 13.8154 80.3256 14.6357C79.851 15.4561 79.1918 16.0859 78.348 16.5254C77.5043 16.959 76.5375 17.1758 75.4477 17.1758C74.2406 17.1758 73.1771 16.9121 72.2572 16.3848C71.3373 15.8574 70.6225 15.1016 70.1127 14.1172C69.6029 13.1328 69.348 11.9785 69.348 10.6543C69.348 9.30664 69.6117 8.1377 70.1391 7.14746C70.6723 6.15723 71.3959 5.40137 72.31 4.87988C73.2299 4.3584 74.2582 4.09766 75.3949 4.09766C76.3617 4.09766 77.2436 4.28223 78.0404 4.65137C78.8432 5.01465 79.4965 5.52441 80.0004 6.18066C80.5043 6.83691 80.809 7.58398 80.9145 8.42188H77.8734Z" fill="#212121"/>
<g clip-path="url(#clip0_333_2208)">
<path fill-rule="evenodd" clip-rule="evenodd" d="M101.686 8.28834C99.9425 8.28834 99.0443 6.16284 100.29 4.91718C101.06 4.14693 102.308 4.14531 103.083 4.91718C103.854 5.68866 103.854 6.93884 103.083 7.70951C103.005 7.74851 102.574 8.28834 101.686 8.28834M102.322 5.67534C101.485 4.83908 100.211 6.11694 101.05 6.95209C101.399 7.29968 101.971 7.30164 102.322 6.94982C102.674 6.59878 102.674 6.02937 102.322 5.67527V5.67534ZM98.0605 1.52301L87.9485 11.6363C87.6649 11.9203 87.5228 12.2933 87.5228 12.6652C87.5228 13.0363 87.6649 13.4093 87.9485 13.6955L94.3065 20.0512C94.5904 20.3348 94.9634 20.4769 95.3345 20.4769C95.706 20.4769 96.0789 20.3348 96.3648 20.0512L106.477 9.93918L105.322 2.67701L98.0605 1.52301Z" fill="#F9B900"/>
</g>
<defs>
<clipPath id="clip0_333_2208">
<rect width="20" height="20" fill="white" transform="translate(87 1)"/>
</clipPath>
</defs>
</svg>
