<svg width="28" height="28" viewBox="0 0 28 28" fill="none" xmlns="http://www.w3.org/2000/svg">
<path fill-rule="evenodd" clip-rule="evenodd" d="M20.923 9.99422C18.3471 9.99422 17.0203 6.85429 18.8605 5.0141C19.9984 3.87623 21.8419 3.87384 22.986 5.0141C24.1257 6.15379 24.125 8.00065 22.9866 9.13913C22.8712 9.19674 22.2344 9.99422 20.9229 9.99422M21.8626 6.13412C20.6255 4.89872 18.7433 6.78648 19.9826 8.02022C20.499 8.53369 21.3434 8.5366 21.8626 8.01685C22.3817 7.49828 22.3823 6.6571 21.8626 6.134V6.13412ZM15.567 0L0.628895 14.9401C0.209944 15.3596 0 15.9106 0 16.46C0 17.0082 0.209951 17.5592 0.628895 17.9821L10.0213 27.3711C10.4406 27.7901 10.9916 28 11.5399 28C12.0887 28 12.6396 27.79 13.0619 27.3711L28 12.4329L26.2947 1.70477L15.567 0Z" fill="#F9B900"/>
</svg>
