<?xml version="1.0" encoding="UTF-8"?>
<svg width="1200pt" height="1200pt" version="1.1" viewBox="0 0 1200 1200" xmlns="http://www.w3.org/2000/svg">
 <g>
  <path d="m1030.5 600c0-237.35-193.14-430.48-430.48-430.48s-430.48 193.14-430.48 430.48c0 161.05 89.051 301.77 220.29 375.54v0.25391l9.6016 5.1797c2.2734 1.2617 4.6719 2.2734 6.9492 3.4102 3.9141 2.0195 7.832 3.9141 11.875 5.8086 3.0312 1.3906 5.9375 2.7773 8.9688 4.043 5.0508 2.2734 10.23 4.293 15.41 6.4414 2.0195 0.75781 4.043 1.6406 5.9375 2.3984 15.535 5.8086 31.453 10.863 47.746 14.906h0.63281c7.707 2.0195 15.41 3.6641 23.242 5.1797 1.3906 0.25391 2.6523 0.50391 4.043 0.75781 6.6953 1.1367 13.516 2.2734 20.336 3.1562 1.7695 0.25391 3.6641 0.50391 5.4297 0.75781 6.4414 0.75781 12.883 1.2617 19.453 1.7695 1.8945 0.125 3.7891 0.37891 5.6836 0.37891 8.2109 0.50391 16.422 0.75781 24.633 0.75781s16.547-0.25391 24.633-0.75781c1.8945 0 3.7891-0.25391 5.6836-0.37891 6.5703-0.50391 13.012-1.0117 19.453-1.7695 1.7695-0.25391 3.6641-0.50391 5.4297-0.63281 6.8203-0.88281 13.641-1.8945 20.336-3.1562 1.2617-0.25391 2.6523-0.50391 3.9141-0.75781 7.832-1.5156 15.664-3.1562 23.496-5.0508h0.50391c16.293-4.168 32.336-9.2227 47.875-15.031 2.0195-0.75781 3.9141-1.5156 5.8086-2.2734 5.1797-2.0195 10.484-4.168 15.535-6.4414 3.0312-1.2617 5.9375-2.6523 8.8438-4.043 4.043-1.8945 7.957-3.7891 11.875-5.8086 2.2734-1.1367 4.6719-2.1484 6.9492-3.4102l9.7266-5.1797v-0.25391c131.24-73.77 220.17-214.36 220.17-375.54zm-252.25 368.09c-5.3047 2.5273-10.609 5.0508-16.043 7.3281-1.0117 0.37891-2.0195 0.88281-3.0312 1.3906-6.9492 2.9062-13.895 5.5586-20.969 8.0859-1.0117 0.37891-1.8945 0.63281-2.9062 1.0117-6.1914 2.1484-12.504 4.168-18.82 6.0625-1.1367 0.37891-2.2734 0.63281-3.2852 1.0117-6.1914 1.7695-12.504 3.4102-18.695 4.9258-1.1367 0.25391-2.3984 0.50391-3.5352 0.75781-6.1914 1.3906-12.504 2.6523-18.695 3.7891-1.2617 0.25391-2.6523 0.50391-3.9141 0.75781-6.0625 1.0117-12.254 1.8945-18.441 2.6523-1.5156 0.125-2.9062 0.37891-4.4219 0.50391-6.0625 0.63281-12.125 1.1367-18.191 1.5156-1.5156 0-3.1562 0.25391-4.6719 0.37891-7.4531 0.37891-15.031 0.63281-22.609 0.63281s-15.031-0.25391-22.609-0.63281c-1.6406 0-3.1562-0.25391-4.6719-0.37891-6.0625-0.37891-12.125-0.88281-18.062-1.5156-1.5156-0.125-3.0312-0.37891-4.5469-0.63281-6.0625-0.75781-12.254-1.6406-18.316-2.6523-1.3906-0.25391-2.6523-0.50391-4.043-0.75781-6.1914-1.1367-12.379-2.3984-18.57-3.7891-1.2617-0.25391-2.3984-0.50391-3.6641-0.88281-6.1914-1.5156-12.379-3.1562-18.57-4.9258-1.1367-0.37891-2.2734-0.63281-3.5352-1.0117-6.1914-1.8945-12.379-3.9141-18.57-6.0625-1.0117-0.37891-2.0195-0.63281-3.0312-1.0117-7.0742-2.5273-14.02-5.1797-20.844-8.0859-1.1367-0.50391-2.2734-1.0117-3.4102-1.5156-5.3047-2.2734-10.484-4.6719-15.664-7.1992-0.75781-0.37891-1.5156-0.75781-2.2734-1.1367 27.914-44.59 70.863-76.801 120.12-91.328l4.6719 3.0312c16.926 11.242 36.254 16.801 55.578 16.801 19.328 0 38.652-5.5586 55.578-16.801l4.6719-3.0312c49.262 14.652 92.211 46.738 120.12 91.328-0.75781 0.37891-1.5156 0.75781-2.2734 1.1367zm-178.23-164.84c-96.504 0-174.95-78.441-174.95-174.95v-87.41c0-10.105 1.0117-19.957 2.6523-29.684 1.3906-6.1914 4.4219-12.125 9.2227-17.051 6.6953-6.6953 15.285-9.9805 24-10.105h160.04c45.98 0 86.652-22.359 112.04-56.59 26.148 30.57 41.938 70.105 41.938 113.43v87.41c0 96.504-78.441 174.95-174.95 174.95zm38.906 17.305v43.074c-24.125 13.641-53.684 13.641-77.809 0v-43.074c12.633 2.5273 25.516 3.9141 38.906 3.9141s26.273-1.3906 38.906-3.9141zm160.55 136.29c-31.832-51.535-81.727-88.422-138.95-103.71v-38.398c74.906-24.379 130.11-92.59 135.16-174.19 26.652-4.8008 46.988-28.043 46.988-56.086s-20.336-51.285-46.988-56.086c-2.9062-45.98-21.602-87.664-50.906-119.75 9.9805-19.199 15.664-41.051 15.664-64.168h-154.23l-0.25391 0.25391c-2.0195 0-3.9141-0.25391-5.9375-0.25391-104.09 0-189.22 81.473-195.66 183.91-26.652 4.8008-46.988 28.043-46.988 56.086s20.336 51.285 46.988 56.086c5.0508 81.727 60.379 149.94 135.16 174.19v38.398c-57.223 15.285-107.24 52.168-138.95 103.71-124.93-70.105-209.56-203.75-209.56-356.84 0-225.47 183.41-409.01 409.01-409.01 225.6 0 409.01 183.41 409.01 409.01 0 153.09-84.633 286.74-209.56 356.84zm-3.1562-338.4v-67.957c14.527 4.5469 25.137 17.938 25.137 33.98 0 16.043-10.609 29.43-25.137 33.98zm-392.46-67.957v67.957c-14.527-4.5469-25.137-17.938-25.137-33.98 0-16.043 10.609-29.43 25.137-33.98z"/>
  <path d="m550.36 583.07c0-8.5898-6.9492-15.664-15.664-15.664-8.7148 0-15.664 6.9492-15.664 15.664 0 8.7148 6.9492 15.664 15.664 15.664 8.7148 0 15.664-6.9492 15.664-15.664z"/>
  <path d="m665.3 567.41c-8.5898 0-15.664 6.9492-15.664 15.664 0 8.7148 6.9492 15.664 15.664 15.664 8.7148 0 15.664-6.9492 15.664-15.664 0-8.7148-6.9492-15.664-15.664-15.664z"/>
  <path d="m531.91 547.33c5.8086 1.5156 11.496-1.8945 13.012-7.5781s-1.8945-11.496-7.5781-13.012c-20.715-5.5586-42.441 6.6953-48.379 27.285-1.6406 5.6836 1.6406 11.496 7.3281 13.137 1.0117 0.25391 2.0195 0.37891 2.9062 0.37891 4.6719 0 8.8438-3.0312 10.23-7.707 2.7773-9.6016 12.883-15.285 22.484-12.633z"/>
  <path d="m586.99 642.32c7.1992-6.9492 18.695-6.8203 25.77 0.25391 2.0195 2.0195 4.8008 3.1562 7.5781 3.1562 2.7773 0 5.4297-1.0117 7.5781-3.1562 4.168-4.168 4.168-10.863 0-15.031-15.156-15.156-40.168-15.41-55.578-0.50391-4.168 4.043-4.293 10.863-0.25391 15.031 4.043 4.293 10.863 4.4219 15.031 0.25391z"/>
  <path d="m662.53 526.74c-5.6836 1.5156-9.0938 7.3281-7.5781 13.012s7.3281 9.0938 13.012 7.5781c9.6016-2.6523 19.707 3.1562 22.484 12.633 1.3906 4.6719 5.5586 7.707 10.23 7.707 1.0117 0 2.0195-0.125 2.9062-0.37891 5.6836-1.6406 8.9688-7.5781 7.3281-13.137-5.9375-20.59-27.535-32.844-48.379-27.285z"/>
  <path d="m645.85 699.79c-3.0312 2.9062-6.1914 5.3047-9.6016 7.4531-21.98 14.273-50.777 14.02-72.504-0.75781-3.2852-2.2734-6.4414-4.8008-9.4727-7.707-4.168-4.168-10.863-4.168-15.031 0-4.168 4.168-4.168 10.863 0 15.031 16.801 16.801 39.031 25.262 61.262 25.262 22.23 0 43.328-7.957 60-24 4.168-4.043 4.293-10.863 0.25391-15.031-4.043-4.293-10.863-4.293-15.031-0.25391z"/>
 </g>
</svg>
